<svg width="24" height="26" viewBox="0 0 24 26" fill="none" xmlns="http://www.w3.org/2000/svg">
<path d="M15.81 19.776C18.2942 19.4819 20.7351 18.8956 23.082 18.0293C21.0945 15.8277 19.9962 12.966 20.0006 10V9.06667V9C20.0006 6.87827 19.1578 4.84344 17.6575 3.34315C16.1572 1.84286 14.1224 1 12.0006 1C9.8789 1 7.84407 1.84286 6.34378 3.34315C4.84349 4.84344 4.00064 6.87827 4.00064 9V10C4.00466 12.9662 2.90595 15.8279 0.917969 18.0293C3.22864 18.8827 5.66464 19.476 8.1913 19.776M15.81 19.776C13.2793 20.0762 10.722 20.0762 8.1913 19.776M15.81 19.776C16.0021 20.3758 16.0499 21.0125 15.9494 21.6343C15.849 22.2561 15.6031 22.8453 15.2318 23.3541C14.8605 23.8629 14.3744 24.2768 13.8129 24.5621C13.2514 24.8475 12.6305 24.9962 12.0006 24.9962C11.3708 24.9962 10.7499 24.8475 10.1884 24.5621C9.6269 24.2768 9.14073 23.8629 8.76946 23.3541C8.3982 22.8453 8.15232 22.2561 8.05185 21.6343C7.95139 21.0125 7.99916 20.3758 8.1913 19.776" stroke="black" stroke-width="1.5" stroke-linecap="round" stroke-linejoin="round"/>
</svg>