<svg width="19" height="19" viewBox="0 0 19 19" fill="none" xmlns="http://www.w3.org/2000/svg">
<path d="M1.25 5.05769C1.25 12.0672 6.93277 17.75 13.9423 17.75H15.8462C16.3511 17.75 16.8353 17.5494 17.1924 17.1924C17.5494 16.8353 17.75 16.3511 17.75 15.8462V14.6852C17.75 14.2486 17.453 13.8678 17.0291 13.7621L13.2865 12.8262C12.9142 12.7332 12.5233 12.8728 12.294 13.1791L11.4732 14.2732C11.2346 14.5913 10.8225 14.7318 10.4494 14.5947C9.06413 14.0854 7.80613 13.2811 6.76251 12.2375C5.71889 11.1939 4.91459 9.93587 4.40531 8.55062C4.26823 8.17746 4.40869 7.76538 4.72685 7.52677L5.82092 6.706C6.12808 6.47669 6.26685 6.08492 6.17377 5.71346L5.23792 1.97092C5.18642 1.76505 5.06761 1.58229 4.90035 1.45167C4.73309 1.32105 4.52699 1.25007 4.31477 1.25H3.15385C2.64891 1.25 2.16466 1.45058 1.80762 1.80762C1.45058 2.16466 1.25 2.64891 1.25 3.15385V5.05769Z" stroke="#6B6B6B" stroke-width="1.5" stroke-linecap="round" stroke-linejoin="round"/>
</svg>
