<svg width="13" height="13" viewBox="0 0 13 13" fill="none" xmlns="http://www.w3.org/2000/svg">
<path d="M5.375 5.125L8.125 7.875M8.125 5.125L5.375 7.875M12.25 6.5C12.25 7.22227 12.1077 7.93747 11.8313 8.60476C11.5549 9.27205 11.1498 9.87836 10.6391 10.3891C10.1284 10.8998 9.52205 11.3049 8.85476 11.5813C8.18747 11.8577 7.47227 12 6.75 12C6.02773 12 5.31253 11.8577 4.64524 11.5813C3.97795 11.3049 3.37163 10.8998 2.86091 10.3891C2.35019 9.87836 1.94506 9.27205 1.66866 8.60476C1.39226 7.93747 1.25 7.22227 1.25 6.5C1.25 5.04131 1.82946 3.64236 2.86091 2.61091C3.89236 1.57946 5.29131 1 6.75 1C8.20869 1 9.60764 1.57946 10.6391 2.61091C11.6705 3.64236 12.25 5.04131 12.25 6.5Z" stroke="white" stroke-linecap="round" stroke-linejoin="round"/>
</svg>
