<svg width="313" height="97" viewBox="0 0 313 97" fill="none" xmlns="http://www.w3.org/2000/svg">
<path d="M132.802 0C133.28 0 133.689 21.6307 133.689 48.289C133.689 74.9473 133.28 96.6026 132.802 96.6026C132.325 96.6026 131.916 74.9718 131.916 48.289C131.916 21.6062 132.325 0 132.802 0Z" fill="#CFDEF4"/>
<path d="M119.951 10.6348C120.19 10.6348 120.394 27.1367 120.394 47.4147C120.394 67.6926 120.19 84.1946 119.951 84.1946C119.712 84.1946 119.508 67.6926 119.508 47.4147C119.508 27.1367 119.695 10.6348 119.951 10.6348Z" fill="#CFDEF4"/>
<path d="M105.771 21.2705C106.01 21.2705 106.214 33.166 106.214 47.8462C106.214 62.5263 106.01 74.4463 105.771 74.4463C105.533 74.4463 105.328 62.5507 105.328 47.8462C105.328 33.1416 105.533 21.2705 105.771 21.2705Z" fill="#CFDEF4"/>
<path d="M93.7894 30.1328C94.9935 40.1573 94.9935 50.2413 93.7894 60.2657C92.6301 50.2398 92.6301 40.1587 93.7894 30.1328Z" fill="#CFDEF4"/>
<path d="M82.7283 37.2227C83.3191 42.8015 83.3191 48.4828 82.7283 54.0616C82.1374 48.4828 82.1374 42.8015 82.7283 37.2227Z" fill="#CFDEF4"/>
<path d="M70.3285 29.2461C70.9081 38.9771 70.9081 48.7617 70.3285 58.4928C69.7264 48.7631 69.7264 38.9757 70.3285 29.2461Z" fill="#CFDEF4"/>
<path d="M58.807 16.8389C59.0411 16.8389 59.2417 29.3227 59.2417 44.7439C59.2417 60.1651 59.0411 72.6734 58.807 72.6734C58.5729 72.6734 58.3555 60.1651 58.3555 44.7439C58.3555 29.3227 58.5561 16.8389 58.807 16.8389Z" fill="#CFDEF4"/>
<path d="M206.361 21.2705C206.838 21.2705 207.247 33.166 207.247 47.8462C207.247 62.5263 206.838 74.4463 206.361 74.4463C205.884 74.4463 205.475 62.5507 205.475 47.8462C205.475 33.1416 205.884 21.2705 206.361 21.2705Z" fill="#CFDEF4"/>
<path d="M264.886 19.4316C265.363 19.4316 265.773 31.3272 265.773 46.0073C265.773 60.6874 265.363 72.6074 264.886 72.6074C264.409 72.6074 264 60.7118 264 46.0073C264 31.3028 264.409 19.4316 264.886 19.4316Z" fill="#CFDEF4"/>
<path d="M193.953 30.1328C195.134 40.1587 195.134 50.2398 193.953 60.2657C192.771 50.2398 192.771 40.1587 193.953 30.1328Z" fill="#CFDEF4"/>
<path d="M182.877 37.2227C183.468 42.8015 183.468 48.4828 182.877 54.0616C182.286 48.4828 182.286 42.8015 182.877 37.2227Z" fill="#CFDEF4"/>
<path d="M170.459 24.8154C170.861 31.1444 170.996 37.511 170.861 43.8701C170.996 50.2292 170.861 56.5958 170.459 62.9247C170.076 56.5937 169.946 50.2286 170.072 43.8701C169.946 37.5116 170.076 31.1465 170.459 24.8154Z" fill="#CFDEF4"/>
<path d="M158.939 16.8389C159.189 16.8389 159.39 29.3227 159.39 44.7439C159.39 60.1651 159.189 72.6734 158.939 72.6734C158.688 72.6734 158.504 60.1651 158.504 44.7439C158.504 29.3227 158.705 16.8389 158.939 16.8389Z" fill="#CFDEF4"/>
<path d="M144.767 10.6348C145.006 10.6348 145.21 26.7084 145.21 46.5161C145.21 66.3237 145.006 82.422 144.767 82.422C144.529 82.422 144.324 66.3484 144.324 46.5161C144.324 26.6837 144.512 10.6348 144.767 10.6348Z" fill="#CFDEF4"/>
<path d="M219.213 58.4928C218.622 48.7618 218.622 38.9771 219.213 29.2461C219.804 38.9771 219.804 48.7618 219.213 58.4928Z" fill="#CFDEF4"/>
<path d="M277.738 56.6539C277.147 46.9229 277.147 37.1382 277.738 27.4072C278.329 37.1382 278.329 46.9229 277.738 56.6539Z" fill="#CFDEF4"/>
<path d="M230.291 51.4034C229.109 45.8246 229.109 40.1433 230.291 34.5645C231.472 40.1433 231.472 45.8246 230.291 51.4034Z" fill="#CFDEF4"/>
<path d="M288.816 49.5646C287.634 43.9857 287.634 38.3045 288.816 32.7256C289.998 38.3045 289.998 43.9857 288.816 49.5646Z" fill="#CFDEF4"/>
<path d="M47.2771 29.2461C47.868 38.9771 47.868 48.7617 47.2771 58.4928C46.6863 48.7617 46.6863 38.9771 47.2771 29.2461Z" fill="#CFDEF4"/>
<path d="M36.6423 36.3369C37.2332 41.6221 37.2332 47.0045 36.6423 52.2896C36.0515 47.0045 36.0515 41.6221 36.6423 36.3369Z" fill="#CFDEF4"/>
<path d="M25.564 29.2461C26.7457 38.9771 26.7457 48.7617 25.564 58.4928C24.3823 48.7617 24.3823 38.9771 25.564 29.2461Z" fill="#CFDEF4"/>
<path d="M14.0425 16.8389C14.5197 16.8389 14.9288 29.3227 14.9288 44.7439C14.9288 60.1651 14.5197 72.6734 14.0425 72.6734C13.5653 72.6734 13.1562 60.1651 13.1562 44.7439C13.1562 29.3227 13.4289 16.8389 14.0425 16.8389Z" fill="#CFDEF4"/>
<path d="M2.52103 29.2461C3.70271 38.9771 3.70271 48.7617 2.52103 58.4928C1.33934 48.7617 1.33934 38.9771 2.52103 29.2461Z" fill="#CFDEF4"/>
<path d="M253.334 16.8389C253.845 16.8389 254.22 29.3227 254.22 44.7439C254.22 60.1651 253.845 72.6734 253.334 72.6734C252.822 72.6734 252.447 60.1651 252.447 44.7439C252.447 29.3227 252.856 16.8389 253.334 16.8389Z" fill="#CFDEF4"/>
<path d="M311.859 15C312.37 15 312.745 27.4838 312.745 42.905C312.745 58.3262 312.37 70.8345 311.859 70.8345C311.348 70.8345 310.973 58.3262 310.973 42.905C310.973 27.4838 311.382 15 311.859 15Z" fill="#CFDEF4"/>
<path d="M241.829 29.2461C242.988 38.9771 242.988 48.7617 241.829 58.4928C240.625 48.7631 240.625 38.9757 241.829 29.2461Z" fill="#CFDEF4"/>
<path d="M300.354 27.4072C301.514 37.1382 301.514 46.9229 300.354 56.6539C299.15 46.9243 299.15 37.1368 300.354 27.4072Z" fill="#CFDEF4"/>
<path d="M231.177 36.3369C232.359 41.6221 232.359 47.0045 231.177 52.2896C229.996 47.0045 229.996 41.6221 231.177 36.3369Z" fill="#CFDEF4"/>
<path d="M289.703 34.498C290.884 39.7832 290.884 45.1656 289.703 50.4508C288.521 45.1656 288.521 39.7832 289.703 34.498Z" fill="#CFDEF4"/>
</svg>
