<svg width="50" height="50" viewBox="0 0 50 50" fill="none" xmlns="http://www.w3.org/2000/svg">
<rect width="50" height="50" rx="10" fill="#F3F8FF"/>
<path d="M16.6973 31.3487L33.3018 14.7441" stroke="#3372D1" stroke-width="1.5" stroke-linecap="round"/>
<path d="M21.3226 29.7129C20.9753 30.0602 21.0486 30.6427 21.4964 30.8443C22.2884 31.2006 23.1444 31.4398 24.0425 31.5399C24.1794 31.5552 24.267 31.6993 24.267 31.8371V33.1034C24.267 33.4703 23.9934 33.7754 23.6374 33.8643L22.8684 34.0566C22.4759 34.1547 22.2373 34.5524 22.3354 34.9449C22.4335 35.3374 22.8313 35.5761 23.2238 35.478L23.9928 35.2857C24.6538 35.1204 25.3453 35.1204 26.0064 35.2857L26.7754 35.478C27.1679 35.5761 27.5656 35.3374 27.6637 34.9449C27.7618 34.5524 27.5232 34.1547 27.1307 34.0566L26.3617 33.8643C26.0057 33.7754 25.7321 33.4703 25.7321 33.1034V31.8371C25.7321 31.6993 25.8201 31.5551 25.957 31.5398C30.2264 31.0639 33.546 27.4428 33.546 23.0464C33.546 22.6419 33.218 22.3139 32.8134 22.3139C32.4089 22.3139 32.0809 22.6419 32.0809 23.0464C32.0809 26.9574 28.9105 30.1278 24.9996 30.1278C24.0107 30.1278 23.0693 29.9251 22.2144 29.559C21.9115 29.4293 21.5556 29.4799 21.3226 29.7129Z" fill="#3372D1"/>
<path d="M24.5519 26.4836C24.1044 26.931 24.3013 27.6767 24.9341 27.6855C24.9559 27.6858 24.9777 27.6859 24.9996 27.6859C27.5619 27.6859 29.6391 25.6088 29.6391 23.0464C29.6391 22.4375 28.9029 22.1326 28.4723 22.5632L28.3047 22.7307C28.221 22.8145 28.174 22.928 28.174 23.0464C28.174 24.7996 26.7527 26.2208 24.9996 26.2208C24.885 26.2208 24.7733 26.2621 24.6924 26.3431L24.5519 26.4836Z" fill="#3372D1"/>
<path d="M22.6066 25.1323C22.9019 25.4707 22.9628 26.0007 22.6452 26.3183C22.3955 26.568 21.9954 26.5996 21.7438 26.3518C20.8896 25.5103 20.3601 24.3402 20.3601 23.0464V19.1395C20.3601 16.5772 22.4372 14.5 24.9996 14.5C27.5619 14.5 29.6391 16.5772 29.6391 19.1395C29.6391 19.2579 29.592 19.3715 29.5083 19.4552L29.3407 19.6228C28.9101 20.0533 28.174 19.7484 28.174 19.1395C28.174 17.3863 26.7527 15.9651 24.9996 15.9651C23.2464 15.9651 21.8252 17.3863 21.8252 19.1395V23.0464C21.8252 23.8449 22.1199 24.5744 22.6066 25.1323Z" fill="#3372D1"/>
<path d="M19.8897 27.9489C20.1857 28.2574 20.2112 28.7523 19.9089 29.0546C19.6401 29.3234 19.207 29.3419 18.939 29.0723C17.4026 27.5271 16.4531 25.3977 16.4531 23.0464C16.4531 22.6419 16.7811 22.3139 17.1857 22.3139C17.5903 22.3139 17.9182 22.6419 17.9182 23.0464C17.9182 24.9491 18.6686 26.6766 19.8897 27.9489Z" fill="#3372D1"/>
<rect x="0.5" y="0.5" width="49" height="49" rx="9.5" stroke="#2F80ED" stroke-opacity="0.1"/>
</svg>
