<svg width="50" height="50" viewBox="0 0 50 50" fill="none" xmlns="http://www.w3.org/2000/svg">
<rect width="50" height="50" rx="10" fill="#F3F8FF"/>
<path d="M32.3693 18.4085C33.2349 19.2741 33.9215 20.3017 34.39 21.4327C34.8585 22.5637 35.0996 23.7758 35.0996 25C35.0996 26.2242 34.8585 27.4363 34.39 28.5673C33.9215 29.6983 33.2349 30.7259 32.3693 31.5915M29.6235 21.1553C30.6431 22.175 31.2158 23.558 31.2158 25C31.2158 26.442 30.6431 27.825 29.6235 28.8447M19.5632 21.1159L24.452 16.2272C24.5606 16.1187 24.699 16.0448 24.8496 16.0149C25.0002 15.985 25.1563 16.0004 25.2981 16.0591C25.44 16.1178 25.5612 16.2173 25.6466 16.3449C25.732 16.4725 25.7776 16.6226 25.7777 16.7761V33.2239C25.7776 33.3774 25.732 33.5275 25.6466 33.6551C25.5612 33.7827 25.44 33.8822 25.2981 33.9409C25.1563 33.9996 25.0002 34.015 24.8496 33.9851C24.699 33.9552 24.5606 33.8813 24.452 33.7728L19.5632 28.8841H17.2431C16.3317 28.8841 15.4782 28.3589 15.2359 27.4817C15.0137 26.6732 14.9015 25.8384 14.9023 25C14.9023 24.1403 15.0184 23.3086 15.2359 22.5183C15.4782 21.64 16.3317 21.1159 17.2431 21.1159H19.5632Z" stroke="#3372D1" stroke-width="1.5" stroke-linecap="round" stroke-linejoin="round"/>
<rect x="0.5" y="0.5" width="49" height="49" rx="9.5" stroke="#2F80ED" stroke-opacity="0.1"/>
</svg>
