<svg width="19" height="19" viewBox="0 0 19 19" fill="none" xmlns="http://www.w3.org/2000/svg">
<path d="M1.5 4.80769C1.5 11.8172 7.18277 17.5 14.1923 17.5H16.0962C16.6011 17.5 17.0853 17.2994 17.4424 16.9424C17.7994 16.5853 18 16.1011 18 15.5962V14.4352C18 13.9986 17.703 13.6178 17.2791 13.5121L13.5365 12.5762C13.1642 12.4832 12.7733 12.6228 12.544 12.9291L11.7232 14.0232C11.4846 14.3413 11.0725 14.4818 10.6994 14.3447C9.31413 13.8354 8.05613 13.0311 7.01251 11.9875C5.96889 10.9439 5.16459 9.68587 4.65531 8.30062C4.51823 7.92746 4.65869 7.51538 4.97685 7.27677L6.07092 6.456C6.37808 6.22669 6.51685 5.83492 6.42377 5.46346L5.48792 1.72092C5.43642 1.51505 5.31761 1.33229 5.15035 1.20167C4.98309 1.07105 4.77699 1.00007 4.56477 1H3.40385C2.89891 1 2.41466 1.20058 2.05762 1.55762C1.70058 1.91466 1.5 2.39891 1.5 2.90385V4.80769Z" stroke="white" stroke-width="1.5" stroke-linecap="round" stroke-linejoin="round"/>
</svg>
