<svg width="50" height="50" viewBox="0 0 50 50" fill="none" xmlns="http://www.w3.org/2000/svg">
<rect width="50" height="50" rx="25" fill="green"/>
<path d="M35.2686 22.7267C29.8844 17.2636 21.0903 17.1997 15.6272 22.5839L14.1434 24.0462C13.7499 24.4341 13.5266 24.9624 13.5225 25.5149C13.5185 26.0674 13.7342 26.5989 14.122 26.9924L15.0137 27.8972C15.3491 28.2375 15.8731 28.3062 16.2847 28.063L19.9204 25.9176C20.2821 25.7042 20.4795 25.2951 20.4229 24.8802L20.2222 23.3971C20.1638 22.9658 20.3771 22.5398 20.7732 22.36C22.244 21.6929 23.8423 21.3535 25.4573 21.3652C27.0723 21.377 28.6655 21.7396 30.1264 22.4281C30.5199 22.6136 30.7269 23.0427 30.6623 23.473L30.44 24.9531C30.3768 25.3677 30.5695 25.7797 30.9274 25.9977L34.5315 28.1957C34.7298 28.3166 34.9628 28.3678 35.1935 28.3411C35.4241 28.3144 35.6393 28.2114 35.8047 28.0485L36.7095 27.1567C37.1031 26.7689 37.3264 26.2406 37.3304 25.6881C37.3345 25.1355 37.1188 24.6041 36.731 24.2105L35.2686 22.7267Z" stroke="#FBFAFA" stroke-linecap="round" stroke-linejoin="round"/>
</svg>
