<svg width="14" height="18" viewBox="0 0 14 18" fill="none" xmlns="http://www.w3.org/2000/svg">
<path d="M10.0004 4.07692C10.0004 4.89297 9.68429 5.6756 9.1216 6.25263C8.55892 6.82967 7.79576 7.15384 7 7.15384C6.20424 7.15384 5.44108 6.82967 4.8784 6.25263C4.31571 5.6756 3.9996 4.89297 3.9996 4.07692C3.9996 3.26087 4.31571 2.47824 4.8784 1.90121C5.44108 1.32417 6.20424 1 7 1C7.79576 1 8.55892 1.32417 9.1216 1.90121C9.68429 2.47824 10.0004 3.26087 10.0004 4.07692ZM1 15.6609C1.02571 14.0464 1.66916 12.507 2.79158 11.3746C3.914 10.2422 5.42546 9.60756 7 9.60756C8.57454 9.60756 10.086 10.2422 11.2084 11.3746C12.3308 12.507 12.9743 14.0464 13 15.6609C11.1177 16.5461 9.07079 17.0029 7 17C4.85891 17 2.82664 16.5208 1 15.6609Z" stroke="#3372D1" stroke-linecap="round" stroke-linejoin="round"/>
</svg>
