<svg width="18" height="18" viewBox="0 0 18 18" fill="none" xmlns="http://www.w3.org/2000/svg">
<path d="M11.125 7.9375C11.125 8.50108 10.9011 9.04159 10.5026 9.4401C10.1041 9.83862 9.56358 10.0625 9 10.0625C8.43641 10.0625 7.89591 9.83862 7.4974 9.4401C7.09888 9.04159 6.875 8.50108 6.875 7.9375C6.875 7.37391 7.09888 6.83341 7.4974 6.4349C7.89591 6.03638 8.43641 5.8125 9 5.8125C9.56358 5.8125 10.1041 6.03638 10.5026 6.4349C10.9011 6.83341 11.125 7.37391 11.125 7.9375Z" stroke="#3372D1" stroke-linecap="round" stroke-linejoin="round"/>
<path d="M14.3125 7.9375C14.3125 12.9964 9 15.9062 9 15.9062C9 15.9062 3.6875 12.9964 3.6875 7.9375C3.6875 6.52854 4.24721 5.17728 5.2435 4.181C6.23978 3.18471 7.59104 2.625 9 2.625C10.409 2.625 11.7602 3.18471 12.7565 4.181C13.7528 5.17728 14.3125 6.52854 14.3125 7.9375Z" stroke="#3372D1" stroke-linecap="round" stroke-linejoin="round"/>
</svg>
