<svg width="17" height="16" viewBox="0 0 17 16" fill="none" xmlns="http://www.w3.org/2000/svg">
<path d="M5.51048 7.94559C5.51048 8.0263 5.47842 8.10371 5.42134 8.16079C5.36427 8.21787 5.28686 8.24993 5.20614 8.24993C5.12542 8.24993 5.04801 8.21787 4.99094 8.16079C4.93386 8.10371 4.90179 8.0263 4.90179 7.94559C4.90179 7.86487 4.93386 7.78746 4.99094 7.73038C5.04801 7.67331 5.12542 7.64124 5.20614 7.64124C5.28686 7.64124 5.36427 7.67331 5.42134 7.73038C5.47842 7.78746 5.51048 7.86487 5.51048 7.94559ZM5.51048 7.94559H5.20614M8.55393 7.94559C8.55393 8.0263 8.52187 8.10371 8.46479 8.16079C8.40772 8.21787 8.33031 8.24993 8.24959 8.24993C8.16887 8.24993 8.09146 8.21787 8.03438 8.16079C7.97731 8.10371 7.94524 8.0263 7.94524 7.94559C7.94524 7.86487 7.97731 7.78746 8.03438 7.73038C8.09146 7.67331 8.16887 7.64124 8.24959 7.64124C8.33031 7.64124 8.40772 7.67331 8.46479 7.73038C8.52187 7.78746 8.55393 7.86487 8.55393 7.94559ZM8.55393 7.94559H8.24959M11.5974 7.94559C11.5974 8.0263 11.5653 8.10371 11.5082 8.16079C11.4512 8.21787 11.3738 8.24993 11.293 8.24993C11.2123 8.24993 11.1349 8.21787 11.0778 8.16079C11.0208 8.10371 10.9887 8.0263 10.9887 7.94559C10.9887 7.86487 11.0208 7.78746 11.0778 7.73038C11.1349 7.67331 11.2123 7.64124 11.293 7.64124C11.3738 7.64124 11.4512 7.67331 11.5082 7.73038C11.5653 7.78746 11.5974 7.86487 11.5974 7.94559ZM11.5974 7.94559H11.293M15.5539 7.94559C15.5539 11.6432 12.2832 14.6412 8.24959 14.6412C7.54934 14.642 6.85207 14.5501 6.17598 14.3677C5.22299 15.0379 4.06044 15.3425 2.90123 15.2255C2.77235 15.2131 2.64402 15.1955 2.51654 15.1728C2.91655 14.7013 3.18973 14.1357 3.31027 13.5293C3.38332 13.1584 3.20233 12.7981 2.93126 12.5343C1.70009 11.3364 0.945312 9.72215 0.945312 7.94559C0.945312 4.248 4.216 1.25 8.24959 1.25C12.2832 1.25 15.5539 4.248 15.5539 7.94559Z" stroke="white" stroke-width="1.5" stroke-linecap="round" stroke-linejoin="round"/>
</svg>
