<svg width="22" height="18" viewBox="0 0 22 18" fill="none" xmlns="http://www.w3.org/2000/svg">
<path d="M0.181641 9C1.12215 3.87976 5.60812 0 11.0003 0C16.3924 0 20.8784 3.87976 21.8189 9C20.8784 14.1202 16.3924 18 11.0003 18C5.60812 18 1.12215 14.1202 0.181641 9ZM11.0003 14C13.7617 14 16.0003 11.7614 16.0003 9C16.0003 6.23858 13.7617 4 11.0003 4C8.23884 4 6.00026 6.23858 6.00026 9C6.00026 11.7614 8.23884 14 11.0003 14ZM11.0003 12C9.3434 12 8.00026 10.6569 8.00026 9C8.00026 7.3431 9.3434 6 11.0003 6C12.6571 6 14.0003 7.3431 14.0003 9C14.0003 10.6569 12.6571 12 11.0003 12Z" fill="#FF3FBE"/>
</svg>
