<svg width="18" height="14" viewBox="0 0 18 14" fill="none" xmlns="http://www.w3.org/2000/svg">
<path d="M12.75 2V2.625M12.75 5.125V5.75M12.75 8.25V8.875M12.75 11.375V12M5.25 7.625H9.625M5.25 9.5H7.75M1.8125 1.375C1.295 1.375 0.875 1.795 0.875 2.3125V4.83417C1.25562 5.05331 1.57177 5.3689 1.7916 5.74912C2.01143 6.12935 2.12717 6.5608 2.12717 7C2.12717 7.4392 2.01143 7.87065 1.7916 8.25088C1.57177 8.6311 1.25562 8.94669 0.875 9.16583V11.6875C0.875 12.205 1.295 12.625 1.8125 12.625H16.1875C16.705 12.625 17.125 12.205 17.125 11.6875V9.16583C16.7444 8.94669 16.4282 8.6311 16.2084 8.25088C15.9886 7.87065 15.8728 7.4392 15.8728 7C15.8728 6.5608 15.9886 6.12935 16.2084 5.74912C16.4282 5.3689 16.7444 5.05331 17.125 4.83417V2.3125C17.125 1.795 16.705 1.375 16.1875 1.375H1.8125Z" stroke="#242732" stroke-width="1.5" stroke-linecap="round" stroke-linejoin="round"/>
</svg>
