<svg width="16" height="12" viewBox="0 0 16 12" fill="none" xmlns="http://www.w3.org/2000/svg">
<path d="M11.4808 1.94276V2.48122M11.4808 4.63507V5.17353M11.4808 7.32737V7.86583M11.4808 10.0197V10.5581M5.01923 6.78891H8.78846M5.01923 8.4043H7.17308M2.05769 1.4043C1.61185 1.4043 1.25 1.76614 1.25 2.21199V4.3845C1.57792 4.5733 1.85029 4.84519 2.03968 5.17277C2.22908 5.50035 2.32879 5.87206 2.32879 6.25045C2.32879 6.62884 2.22908 7.00055 2.03968 7.32813C1.85029 7.65571 1.57792 7.9276 1.25 8.1164V10.2889C1.25 10.7348 1.61185 11.0966 2.05769 11.0966H14.4423C14.8882 11.0966 15.25 10.7348 15.25 10.2889V8.1164C14.9221 7.9276 14.6497 7.65571 14.4603 7.32813C14.2709 7.00055 14.1712 6.62884 14.1712 6.25045C14.1712 5.87206 14.2709 5.50035 14.4603 5.17277C14.6497 4.84519 14.9221 4.5733 15.25 4.3845V2.21199C15.25 1.76614 14.8882 1.4043 14.4423 1.4043H2.05769Z" stroke="white" stroke-linecap="round" stroke-linejoin="round"/>
</svg>
